# xmcd CD database file
#
# Track frame offsets:
#	150
#	18410
#	33468
#	50679
#	65329
#	85755
#	101626
#	120029
#	134433
#	158744
#	176495
#	196235
#	217221
#
# Disc length: 3215 seconds
#
# Revision: 5
# Processed by: cddbd v1.5.2PL0 Copyright (c) Steve Scherf et al.
# Submitted via: CDex 1.70beta2
#
DISCID=ad0c8d0d
DTITLE=Paul Anka - Classic Songs, My Way 1
DYEAR=2007
DGENRE=Jazz
TTITLE0=Time After Time
TTITLE1=Get Here
TTITLE2=Mr. Brightside
TTITLE3=Waiting For A Girl Like You
TTITLE4=Ordinary World
TTITLE5=Heaven
TTITLE6=Bad Day
TTITLE7=I Go To Extremes
TTITLE8=Both Sides Now
TTITLE9=Paul Anka and Michael Buble - You Are My Destiny
TTITLE10=Walking In Memphis
TTITLE11=Against The Wind
TTITLE12=Paul Anka and Jon Bon Jovi - My Way
EXTD=YEAR: 2007
EXTT0=
EXTT1=
EXTT2=
EXTT3=
EXTT4=
EXTT5=
EXTT6=
EXTT7=
EXTT8=
EXTT9=
EXTT10=
EXTT11=
EXTT12=
PLAYORDER=
